<?xml version="1.0" encoding="UTF-8"?>
<svg version="1.1" xmlns="http://www.w3.org/2000/svg" width="412" height="409">
<path d="M0 0 C3.28175318 2.52968474 4.69243777 4.07731331 6 8 C6.13666737 9.64282636 6.22439723 11.28997938 6.28125 12.9375 C6.33732422 14.40509766 6.33732422 14.40509766 6.39453125 15.90234375 C6.44673828 17.43568359 6.44673828 17.43568359 6.5 19 C6.57022445 21.00009634 6.64313449 23.00010022 6.71875 25 C6.75572998 26.00039307 6.79270996 27.00078613 6.83081055 28.03149414 C6.99315278 30.87986246 7.32107442 33.66632152 7.67578125 36.49609375 C8.26823173 42.63794074 7.11066174 48.10373338 5.6875 54.0625 C5.46126953 55.09310547 5.23503906 56.12371094 5.00195312 57.18554688 C3.28687022 64.71312978 3.28687022 64.71312978 1 67 C-5.00458716 67.54587156 -5.00458716 67.54587156 -7.9375 65.9375 C-11.09500182 60.17970256 -8.22263227 52.03674682 -7 46 C-7.5775 46.804375 -8.155 47.60875 -8.75 48.4375 C-11 51 -11 51 -12.9375 52 C-16.09079366 52 -17.48887574 50.89837987 -20 49 C-21.56805574 46.60298591 -22.68615312 44.06564271 -23.8125 41.4375 C-24.12380859 40.75236328 -24.43511719 40.06722656 -24.75585938 39.36132812 C-27 34.33543956 -27 34.33543956 -27 32 C-27.639375 31.690625 -28.27875 31.38125 -28.9375 31.0625 C-31 30 -31 30 -32 29 C-32.55958688 21.44557717 -31.73963248 13.36880667 -26.83984375 7.34375 C-20.00718269 1.70468998 -8.76111696 -1.41308338 0 0 Z M-23 10 C-26.34793974 14.69451439 -27.21480676 20.39718044 -28 26 C-27.01 26.33 -26.02 26.66 -25 27 C-24.68869141 25.64455078 -24.68869141 25.64455078 -24.37109375 24.26171875 C-21.90019164 14.80198892 -21.90019164 14.80198892 -19.28125 12.46875 C-16.4941248 11.28776475 -14.01002478 11 -11 11 C-10.77375018 14.5824379 -10.57212819 18.16585101 -10.375 21.75 C-10.31054688 22.76578125 -10.24609375 23.7815625 -10.1796875 24.828125 C-10.10234375 26.29765625 -10.10234375 26.29765625 -10.0234375 27.796875 C-9.97106934 28.69760742 -9.91870117 29.59833984 -9.86474609 30.52636719 C-10.01238635 33.22653166 -10.51840517 34.75113931 -12 37 C-14.125 37.75 -14.125 37.75 -16 38 C-16.268125 37.071875 -16.53625 36.14375 -16.8125 35.1875 C-17.91148371 32.23759634 -18.62418561 30.94384814 -21 29 C-22.36420006 33.09260018 -20.7664515 35.47012659 -19.0625 39.1875 C-18.62647461 40.16879883 -18.62647461 40.16879883 -18.18164062 41.16992188 C-17.46304657 42.78381344 -16.7326412 44.39243655 -16 46 C-15.01 46 -14.02 46 -13 46 C-10.36 41.38 -7.72 36.76 -5 32 C-4.01 32 -3.02 32 -2 32 C-0.61676103 40.01611982 -1.50176562 46.87985362 -3.30859375 54.71484375 C-4.13730123 58.09285377 -4.13730123 58.09285377 -4 62 C-3.01 62 -2.02 62 -1 62 C3.07013421 49.40276643 3.1815893 37.56604767 2.375 24.5 C2.32861389 23.7093515 2.28222778 22.918703 2.23443604 22.10409546 C2.09521194 19.8285393 1.9389993 17.55502992 1.7734375 15.28125 C1.72729309 14.59134476 1.68114868 13.90143951 1.63360596 13.19062805 C1.34475246 9.67936669 1.0022878 8.0034317 -1 5 C-7.59997653 2.42340924 -17.48466075 6.12356791 -23 10 Z M-16 16 C-18.33296251 18.82717213 -18.33296251 18.82717213 -17.75 22.0625 C-17.2406756 25.099459 -17.2406756 25.099459 -15 27 C-15 23.37 -15 19.74 -15 16 C-15.33 16 -15.66 16 -16 16 Z " fill="#27A2AB" transform="translate(218,134)"/>
<path d="M0 0 C1.98 0 3.96 0 6 0 C7.67868889 3.35737777 7.14241099 7.12427141 7.125 10.8125 C7.12886719 11.62009766 7.13273437 12.42769531 7.13671875 13.25976562 C7.13009448 17.30387952 7.0084017 21.05442826 6 25 C6.639375 24.319375 7.27875 23.63875 7.9375 22.9375 C13.36699923 17.50800077 19.80027781 11.13999074 27.75 10.875 C29.35875 10.936875 29.35875 10.936875 31 11 C32.06356063 14.7224622 32.30470649 16.40963118 30.5 19.90625 C27.48260632 23.64027468 24.39747606 25.5699755 20.25 27.875 C19.55261719 28.2771875 18.85523438 28.679375 18.13671875 29.09375 C16.43151263 30.07482749 14.71669322 31.03916424 13 32 C13.7940625 32.48210937 14.588125 32.96421875 15.40625 33.4609375 C16.4271875 34.09257812 17.448125 34.72421875 18.5 35.375 C19.5209375 36.00148438 20.541875 36.62796875 21.59375 37.2734375 C22.3878125 37.84320313 23.181875 38.41296875 24 39 C24 39.66 24 40.32 24 41 C24.66 41 25.32 41 26 41 C26 41.66 26 42.32 26 43 C26.99 43.33 27.98 43.66 29 44 C31.27645664 47.2349647 31.25800605 50.12990929 31 54 C30 55 30 55 26.75 55.25 C22.7235397 54.98156931 21.19472216 54.3540058 18 52 C16.7625 51.13375 16.7625 51.13375 15.5 50.25 C12.46612898 47.51951608 10.04739283 44.53719783 8 41 C8 40.34 8 39.68 8 39 C7.34 39 6.68 39 6 39 C5.93941406 39.90363281 5.87882812 40.80726563 5.81640625 41.73828125 C5.73261719 42.91777344 5.64882813 44.09726562 5.5625 45.3125 C5.48128906 46.48425781 5.40007812 47.65601563 5.31640625 48.86328125 C5 52 5 52 4 55 C1.03 55.495 1.03 55.495 -2 56 C-8.69180169 45.96229747 -5.30990656 26.38830054 -4.1875 14.75 C-4.11748779 13.96439697 -4.04747559 13.17879395 -3.9753418 12.36938477 C-3.466095 7.6693872 -2.41610663 4.1570273 0 0 Z " fill="#18A9B3" transform="translate(320,226)"/>
<path d="M0 0 C0 0.66 0 1.32 0 2 C0.66 2 1.32 2 2 2 C8.335699 13.34889772 9.2459682 27.3392599 7 40 C5 42 5 42 2.375 42.125 C1.59125 42.08375 0.8075 42.0425 0 42 C-0.66 40.68 -1.32 39.36 -2 38 C-2.5775 38.474375 -3.155 38.94875 -3.75 39.4375 C-8.81510823 42.95493627 -15.05777325 42.47365576 -21 42 C-24.55861809 40.79261172 -26.33146317 39.71310595 -28.875 37 C-30.65589179 32.25095523 -31.05874402 27.98107084 -30 23 C-27.96979828 19.45781621 -25.72888238 17.6344303 -22 16 C-15.33503949 15.05535993 -9.1646735 15.13244001 -3 18 C-5.16796522 12.81453463 -5.16796522 12.81453463 -9 9 C-14.1509556 8.58460035 -17.2519367 9.00081545 -22 11 C-25.1875 11.3125 -25.1875 11.3125 -28 11 C-30 8 -30 8 -29.9375 5.5625 C-28.66237713 2.07716416 -27.12600351 0.97074134 -24 -1 C-15.71055219 -4.25076385 -7.83586692 -4.08827839 0 0 Z M-20 26 C-20.97733657 27.98775876 -20.97733657 27.98775876 -21 30 C-20.14708106 32.15646921 -20.14708106 32.15646921 -18 33.1875 C-13.83057405 34.31671953 -10.17037787 34.11261947 -6 33 C-3.45093374 31.12567495 -3.45093374 31.12567495 -2 29 C-2.93103324 26.67241689 -3.65382128 25.25642868 -5.6875 23.75 C-11.05005589 22.01079268 -15.61270261 22.38693156 -20 26 Z " fill="#18ABB5" transform="translate(261,240)"/>
<path d="M0 0 C1.22847656 -0.00257813 2.45695312 -0.00515625 3.72265625 -0.0078125 C6.9375 0.125 6.9375 0.125 9.9375 1.125 C9.9375 3.765 9.9375 6.405 9.9375 9.125 C5.31380977 10.93179587 1.51221347 11.34339082 -3.4375 11.25 C-4.68273437 11.23195312 -5.92796875 11.21390625 -7.2109375 11.1953125 C-8.62246094 11.16050781 -8.62246094 11.16050781 -10.0625 11.125 C-10.0625 14.095 -10.0625 17.065 -10.0625 20.125 C-9.02609375 20.29515625 -7.9896875 20.4653125 -6.921875 20.640625 C-5.5519353 20.88458686 -4.18215141 21.12942479 -2.8125 21.375 C-2.13058594 21.48457031 -1.44867188 21.59414062 -0.74609375 21.70703125 C3.65549948 22.51897563 6.25670295 23.4755689 8.9375 27.125 C9.25 30.3125 9.25 30.3125 8.9375 33.125 C7.9375 34.125 7.9375 34.125 4.5 34.375 C-0.64138458 34.33767597 -5.2394688 32.78538779 -10.0625 31.125 C-9.90136719 31.97578125 -9.74023438 32.8265625 -9.57421875 33.703125 C-9.06024546 37.14007619 -8.89500652 40.40186742 -8.875 43.875 C-8.86082031 45.00421875 -8.84664062 46.1334375 -8.83203125 47.296875 C-9.0625 50.125 -9.0625 50.125 -11.0625 52.125 C-14.1875 52.25 -14.1875 52.25 -17.0625 52.125 C-19.44661773 47.18669591 -20.44519854 43.58593262 -20.4609375 38.01171875 C-20.46380768 37.35726273 -20.46667786 36.7028067 -20.46963501 36.02851868 C-20.4716624 34.65287402 -20.46622594 33.27719966 -20.45361328 31.90161133 C-20.43761654 29.8276101 -20.4534645 27.75558026 -20.47265625 25.68164062 C-20.48515818 18.3300095 -20.4553666 10.8287842 -17.0625 4.125 C-14.125 2.0625 -14.125 2.0625 -11.0625 1.125 C-10.19625 0.85236328 -10.19625 0.85236328 -9.3125 0.57421875 C-6.18939609 -0.04931762 -3.18193906 -0.00669178 0 0 Z " fill="#1AA9B3" transform="translate(86.0625,230.875)"/>
<path d="M0 0 C0 2.64 0 5.28 0 8 C-4.30573574 8.84242656 -7.76738476 8.98167398 -12.125 8.375 C-15.31390161 8.01691393 -16.84736568 7.94803938 -19.9375 9 C-22.84509326 11.81948437 -23.9112797 14.09341541 -25 18 C-24.82091985 21.10032513 -24.16029086 23.02360171 -23 26 C-17.84466718 29.44424805 -11.35202956 28.23741771 -5.5 27.4375 C-4.345 27.293125 -3.19 27.14875 -2 27 C-1 28 -1 28 -0.75 31.375 C-1 35 -1 35 -2.0625 36.8125 C-8.6583906 40.85514262 -16.91461798 41.00860077 -24.34375 39.53515625 C-29.3434394 37.95876164 -31.52707858 35.74800913 -34 31 C-36.28284832 24.15145505 -36.12342517 14.69830936 -33.5 7.9375 C-31.10471527 3.42822732 -27.50192865 0.34737434 -23 -2 C-15.40413419 -4.0421672 -6.69402133 -4.46268088 0 0 Z " fill="#19AAB4" transform="translate(311,242)"/>
<path d="M0 0 C1.05832031 -0.01160156 2.11664063 -0.02320313 3.20703125 -0.03515625 C8.92021297 -0.01365117 13.04448598 0.21594412 17.875 3.375 C17.875 5.685 17.875 7.995 17.875 10.375 C14.99084117 11.81707941 12.45778472 11.46894887 9.25 11.4375 C8.06148437 11.42847656 6.87296875 11.41945312 5.6484375 11.41015625 C4.73320312 11.39855469 3.81796875 11.38695312 2.875 11.375 C2.9471875 12.11878906 3.019375 12.86257812 3.09375 13.62890625 C3.7722905 21.61118136 4.01241662 29.5535421 4.0625 37.5625 C4.07539063 38.57836182 4.08828125 39.59422363 4.1015625 40.64086914 C4.10349609 42.07740845 4.10349609 42.07740845 4.10546875 43.54296875 C4.10957764 44.40172607 4.11368652 45.2604834 4.11791992 46.14526367 C3.875 48.375 3.875 48.375 1.875 51.375 C-0.0703125 51.66796875 -0.0703125 51.66796875 -2.25 51.5625 C-3.52875 51.500625 -4.8075 51.43875 -6.125 51.375 C-8.03197837 47.56104325 -7.31514974 42.88236799 -7.3125 38.6875 C-7.31314453 37.65488037 -7.31378906 36.62226074 -7.31445312 35.55834961 C-7.2582002 27.34606203 -6.55558794 19.46037647 -5.125 11.375 C-5.87265625 11.45878906 -6.6203125 11.54257813 -7.390625 11.62890625 C-8.37546875 11.73074219 -9.3603125 11.83257812 -10.375 11.9375 C-11.34953125 12.04191406 -12.3240625 12.14632812 -13.328125 12.25390625 C-15.8881352 12.36474468 -17.70648159 12.15238092 -20.125 11.375 C-20.125 8.735 -20.125 6.095 -20.125 3.375 C-13.30523035 0.269129 -7.43904197 -0.08214893 0 0 Z " fill="#18AAB4" transform="translate(177.125,229.625)"/>
<path d="M0 0 C2.31 0 4.62 0 7 0 C7 3.63 7 7.26 7 11 C9.660625 10.9071875 9.660625 10.9071875 12.375 10.8125 C15.3984375 10.70703125 15.3984375 10.70703125 18 11 C20 14 20 14 19.75 17.125 C19.5025 18.07375 19.255 19.0225 19 20 C16.56612247 21.21693876 14.58161154 21.31959896 11.875 21.5625 C10.96492188 21.64628906 10.05484375 21.73007813 9.1171875 21.81640625 C8.41851562 21.87699219 7.71984375 21.93757813 7 22 C7.144375 23.19496094 7.28875 24.38992187 7.4375 25.62109375 C7.62527043 27.22653089 7.8127551 28.83200148 8 30.4375 C8.09539062 31.22060547 8.19078125 32.00371094 8.2890625 32.81054688 C10.06570457 48.22926199 10.06570457 48.22926199 7 54 C6.67 54.33 6.34 54.66 6 55 C3.66055264 54.71269945 1.3260857 54.38063221 -1 54 C-5.15000456 45.38833045 -3.57983666 33.26447424 -2 24 C-1.67 23.34 -1.34 22.68 -1 22 C-2.03060547 22.01740234 -2.03060547 22.01740234 -3.08203125 22.03515625 C-3.98308594 22.04417969 -4.88414062 22.05320313 -5.8125 22.0625 C-7.15248047 22.07990234 -7.15248047 22.07990234 -8.51953125 22.09765625 C-11 22 -11 22 -14 21 C-15.125 15.375 -15.125 15.375 -14 12 C-10.34641788 10.17320894 -6.01991656 10.36076174 -2 10 C-1.34 6.7 -0.68 3.4 0 0 Z " fill="#1AA9B2" transform="translate(134,227)"/>
<path d="M0 0 C2.8125 -0.25 2.8125 -0.25 6 0 C7.75 2 7.75 2 9 4 C9.66 4 10.32 4 11 4 C11 3.34 11 2.68 11 2 C14.69486103 -0.46324069 16.63293092 -0.38991688 21 0 C23.10358381 1.54262813 23.84054159 2.68108317 25 5 C25.12438451 7.65835737 25.18516188 10.27905229 25.1875 12.9375 C25.19974609 13.66646484 25.21199219 14.39542969 25.22460938 15.14648438 C25.23512685 18.9713391 25.17095624 20.74356564 23 24 C20.5 24.3125 20.5 24.3125 18 24 C15.50494038 21.50494038 15.64051624 20.32671112 15.375 16.875 C15.30023438 15.96492187 15.22546875 15.05484375 15.1484375 14.1171875 C15.09945312 13.41851562 15.05046875 12.71984375 15 12 C13.68 12 12.36 12 11 12 C8.7729621 16.45407579 9.8023818 22.64137489 10.5 27.4375 C12.20547945 39.5890411 12.20547945 39.5890411 10 44 C7.69 44 5.38 44 3 44 C0.19746145 39.13970712 -0.67661444 35.03568523 -1.1875 29.5625 C-1.26645508 28.77915283 -1.34541016 27.99580566 -1.42675781 27.1887207 C-3.31190926 7.00495093 -3.31190926 7.00495093 0 0 Z " fill="#18AAB4" transform="translate(201,237)"/>
<path d="M0 0 C5.87376746 8.81065119 3.46866723 23.88375176 1.73046875 33.79296875 C0.90455662 36.28837171 0.10680645 37.44055013 -2 39 C-4.6875 38.6875 -4.6875 38.6875 -7 38 C-10.44368358 27.66894925 -10.54975068 13.38349529 -7 3 C-4.66176103 -0.16593418 -4.22115713 0 0 0 Z " fill="#1AA9B3" transform="translate(111,243)"/>
<path d="M0 0 C3.33513484 2.16783765 3.87155493 3.53759776 4.9375 7.375 C5.00919226 11.53315085 4.25303125 13.53998772 2 17 C-2.02951778 19.68634518 -5.26712146 19.78881309 -10 19 C-13.66508667 16.55660889 -15.23005206 14.30129886 -16.125 10.0625 C-16.36890311 6.76042713 -15.76489796 5.12688442 -13.6875 2.5625 C-9.16940315 -1.74545281 -5.88788839 -1.33053706 0 0 Z M-9.875 5.125 C-11.26260721 7.07324419 -11.26260721 7.07324419 -11 10.0625 C-10.28584235 13.1534467 -10.28584235 13.1534467 -7.6875 14.5 C-5.06708629 15.16909775 -5.06708629 15.16909775 -2.75 14.5 C-0.72660498 13.03151211 -0.72660498 13.03151211 -0.0625 10.0625 C0.27009778 7.07341119 0.27009778 7.07341119 -1.125 5.125 C-4.24751712 3.25148973 -6.75248288 3.25148973 -9.875 5.125 Z " fill="#2EA0A8" transform="translate(219,111)"/>
<path d="M0 0 C0.22523024 3.62415933 0.42731308 7.24924219 0.625 10.875 C0.68945312 11.90753906 0.75390625 12.94007813 0.8203125 14.00390625 C0.871875 14.99003906 0.9234375 15.97617188 0.9765625 16.9921875 C1.02893066 17.90339355 1.08129883 18.81459961 1.13525391 19.75341797 C1 22 1 22 -1 24 C-1.33 20.37 -1.66 16.74 -2 13 C-2.33 13.66 -2.66 14.32 -3 15 C-3.66 15 -4.32 15 -5 15 C-5.33 12.03 -5.66 9.06 -6 6 C-6.2475 6.78375 -6.495 7.5675 -6.75 8.375 C-8.1824048 11.38305008 -9.0309239 11.75490357 -12 13 C-12.33 13.66 -12.66 14.32 -13 15 C-13.66 14.67 -14.32 14.34 -15 14 C-13.38579466 4.24750942 -13.38579466 4.24750942 -10.16015625 1.34375 C-6.28747465 -0.67552532 -4.21832498 -1.18119698 0 0 Z " fill="#1EA5AE" transform="translate(208,145)"/>
<path d="M0 0 C1.32850242 6.40096618 1.32850242 6.40096618 -0.0625 8.9375 C-2.800616 10.43904748 -4.92844731 10.26140874 -8 10 C-8.66 9.67 -9.32 9.34 -10 9 C-10.59355614 6.35139573 -10.74209269 3.70802678 -11 1 C-7.2297564 -1.56376565 -4.32597804 -0.83191885 0 0 Z " fill="#16B2BB" transform="translate(113,228)"/>
<path d="M0 0 C0.928125 0.5259375 0.928125 0.5259375 1.875 1.0625 C2.57625 1.371875 3.2775 1.68125 4 2 C4.66 1.67 5.32 1.34 6 1 C7.5625 2.1875 7.5625 2.1875 9 4 C8.6875 6.6875 8.6875 6.6875 8 9 C7.01 8.01 6.02 7.02 5 6 C2.86095443 7.79197395 2.86095443 7.79197395 2.5 10.0625 C2.2525 11.0215625 2.2525 11.0215625 2 12 C1.01 12.495 1.01 12.495 0 13 C-0.65213292 15.02463255 -0.65213292 15.02463255 -1 17 C-0.01 17 0.98 17 2 17 C3.35439668 19.70879335 3.06501451 22.00933268 3 25 C1.0625 24.1875 1.0625 24.1875 -1 23 C-2.19960669 19.40117994 -2.16886729 16.41862018 -2.1875 12.625 C-2.20167969 11.31789063 -2.21585937 10.01078125 -2.23046875 8.6640625 C-2.0164804 5.26201037 -1.48144811 3.03316253 0 0 Z " fill="#1DA6AE" transform="translate(278,250)"/>
<path d="M0 0 C0.66 0 1.32 0 2 0 C2.9097804 7.39927377 3.12410745 14.67523781 3.0625 22.125 C3.05798828 23.176875 3.05347656 24.22875 3.04882812 25.3125 C3.03718011 27.87506221 3.02082553 30.43749877 3 33 C2.01 33.495 2.01 33.495 1 34 C1 25.09 1 16.18 1 7 C-2.465 8.485 -2.465 8.485 -6 10 C-6.33 10 -6.66 10 -7 10 C-7 8.02 -7 6.04 -7 4 C-5.824375 3.8453125 -5.824375 3.8453125 -4.625 3.6875 C-1.66954819 3.22404978 -1.66954819 3.22404978 0 0 Z " fill="#22A3AB" transform="translate(178,245)"/>
<path d="M0 0 C1.32 0.33 2.64 0.66 4 1 C4 10.24 4 19.48 4 29 C3.34 29 2.68 29 2 29 C1.90912109 27.93458984 1.90912109 27.93458984 1.81640625 26.84765625 C1.73261719 25.92855469 1.64882812 25.00945312 1.5625 24.0625 C1.48128906 23.14597656 1.40007812 22.22945312 1.31640625 21.28515625 C1.23955024 19.03840268 1.23955024 19.03840268 0 18 C-0.08631874 16.65732587 -0.10706473 15.31025678 -0.09765625 13.96484375 C-0.09443359 13.15595703 -0.09121094 12.34707031 -0.08789062 11.51367188 C-0.07951172 10.66353516 -0.07113281 9.81339844 -0.0625 8.9375 C-0.05798828 8.08349609 -0.05347656 7.22949219 -0.04882812 6.34960938 C-0.03700373 4.23304337 -0.01906769 2.11651315 0 0 Z " fill="#1AA9B5" transform="translate(219,142)"/>
<path d="M0 0 C0.99 0.33 1.98 0.66 3 1 C3.05437607 2.58294782 3.09296271 4.16644256 3.125 5.75 C3.14820313 6.63171875 3.17140625 7.5134375 3.1953125 8.421875 C2.99139502 11.1135858 2.36551721 12.69904974 1 15 C1.66 15 2.32 15 3 15 C3.12375 14.4225 3.2475 13.845 3.375 13.25 C4.00725613 10.97387794 4.91863468 9.09239794 6 7 C5.88557539 8.60495567 5.75805306 10.20898119 5.625 11.8125 C5.55539063 12.70582031 5.48578125 13.59914062 5.4140625 14.51953125 C5 17 5 17 3 20 C2.67 19.01 2.34 18.02 2 17 C2 19.31 2 21.62 2 24 C4.64 24 7.28 24 10 24 C9.67 24.66 9.34 25.32 9 26 C2.65492958 26.35915493 2.65492958 26.35915493 0.0625 24.9375 C-3.09500182 19.17970256 -0.22263227 11.03674682 1 5 C0.67 5 0.34 5 0 5 C0 3.35 0 1.7 0 0 Z " fill="#319EA6" transform="translate(210,175)"/>
<path d="M0 0 C0.66 0 1.32 0 2 0 C1.835 0.825 1.67 1.65 1.5 2.5 C0.94103955 6.41272317 0.93192813 10.05183173 1 14 C-5.42548263 15.33359073 -5.42548263 15.33359073 -7.9375 13.875 C-9.30361625 11.46420662 -9.22111261 9.72705554 -9 7 C-8.34 6.67 -7.68 6.34 -7 6 C-6.8453125 6.9590625 -6.8453125 6.9590625 -6.6875 7.9375 C-6.460625 8.618125 -6.23375 9.29875 -6 10 C-5.01 10.33 -4.02 10.66 -3 11 C-2.95101562 10.37351563 -2.90203125 9.74703125 -2.8515625 9.1015625 C-2.77679688 8.28429687 -2.70203125 7.46703125 -2.625 6.625 C-2.55539063 5.81289062 -2.48578125 5.00078125 -2.4140625 4.1640625 C-2 2 -2 2 0 0 Z " fill="#2CA3AE" transform="translate(220,185)"/>
<path d="M0 0 C2.475 0.99 2.475 0.99 5 2 C5 2.66 5 3.32 5 4 C5.66 4 6.32 4 7 4 C7.66 5.32 8.32 6.64 9 8 C8.34 8.66 7.68 9.32 7 10 C6.0409375 11.0209375 6.0409375 11.0209375 5.0625 12.0625 C3 14 3 14 0 15 C-1.37562854 13.71034824 -2.70766393 12.37310707 -4 11 C-4 10.34 -4 9.68 -4 9 C-1.525 9.495 -1.525 9.495 1 10 C2.15837626 5.94568308 1.83691257 3.78187881 0 0 Z " fill="#13B1B8" transform="translate(256,238)"/>
<path d="M0 0 C9.12177122 4.36162362 9.12177122 4.36162362 12 7 C12 7.66 12 8.32 12 9 C12.66 9.33 13.32 9.66 14 10 C12.35 9.67 10.7 9.34 9 9 C9 9.66 9 10.32 9 11 C4.545 12.485 4.545 12.485 0 14 C-0.99 12.35 -1.98 10.7 -3 9 C-1.8553125 9.2784375 -1.8553125 9.2784375 -0.6875 9.5625 C2.08967375 10.22819173 2.08967375 10.22819173 5 9 C5 7.68 5 6.36 5 5 C2.53673288 3.3553326 2.53673288 3.3553326 0 2 C0 1.34 0 0.68 0 0 Z " fill="#14B3BB" transform="translate(332,258)"/>
<path d="M0 0 C0.99 0 1.98 0 3 0 C3.48828125 2.01822917 3.9765625 4.03645833 4.46484375 6.0546875 C4.94846992 8.0585657 4.94846992 8.0585657 6 10 C7.97888961 10.72693904 9.97954558 11.39816251 12 12 C12 12.33 12 12.66 12 13 C4 13.15384615 4 13.15384615 1 12 C-0.26237731 9.47524538 -0.09856404 7.68799534 -0.0625 4.875 C-0.05347656 3.96492188 -0.04445312 3.05484375 -0.03515625 2.1171875 C-0.02355469 1.41851562 -0.01195312 0.71984375 0 0 Z " fill="#1EA5AD" transform="translate(205,116)"/>
<path d="M0 0 C0.33 0.66 0.66 1.32 1 2 C0.43152344 1.96519531 -0.13695312 1.93039063 -0.72265625 1.89453125 C-4.77874604 1.75233111 -8.03391441 1.75270148 -11.75 3.5 C-14.89329193 4.95075012 -16.61203631 5.3079967 -20 5 C-20 5.66 -20 6.32 -20 7 C-17.36 6.67 -14.72 6.34 -12 6 C-14.95183101 8.95183101 -17.95511947 9.08663988 -22 10 C-22 9.34 -22 8.68 -22 8 C-22.99 7.34 -23.98 6.68 -25 6 C-21.67457601 4.64617126 -18.33915472 3.3195453 -15 2 C-13.989375 1.5875 -12.97875 1.175 -11.9375 0.75 C-7.93113175 -0.27290253 -4.11112651 -0.16444506 0 0 Z " fill="#349FA8" transform="translate(218,134)"/>
<path d="M0 0 C0.33 0 0.66 0 1 0 C1.06058594 1.27617187 1.12117188 2.55234375 1.18359375 3.8671875 C1.26799568 5.53647016 1.35264386 7.20574037 1.4375 8.875 C1.47681641 9.71675781 1.51613281 10.55851562 1.55664062 11.42578125 C1.59853516 12.23144531 1.64042969 13.03710938 1.68359375 13.8671875 C1.72025146 14.61081543 1.75690918 15.35444336 1.79467773 16.12060547 C1.89955865 18.08864312 1.89955865 18.08864312 3 20 C2.66015625 22.3828125 2.66015625 22.3828125 2.0625 25.125 C1.86785156 26.03507812 1.67320312 26.94515625 1.47265625 27.8828125 C1.23869141 28.93082031 1.23869141 28.93082031 1 30 C0.67 30 0.34 30 0 30 C-0.90976287 23.85910066 -1.11018339 17.82204645 -1.125 11.625 C-1.12951172 10.82787598 -1.13402344 10.03075195 -1.13867188 9.20947266 C-1.13019548 5.88884596 -1.05709904 3.17129713 0 0 Z " fill="#2C9EA7" transform="translate(316,248)"/>
<path d="M0 0 C0.6875 2.8125 0.6875 2.8125 1 6 C-0.4375 7.875 -0.4375 7.875 -2 9 C-2 8.01 -2 7.02 -2 6 C-2.99 6.33 -3.98 6.66 -5 7 C-5 6.01 -5 5.02 -5 4 C-5.66 4 -6.32 4 -7 4 C-7 3.34 -7 2.68 -7 2 C-7.66 1.67 -8.32 1.34 -9 1 C-6.04335481 -0.4783226 -3.25770263 -0.06032783 0 0 Z " fill="#23A4AE" transform="translate(351,237)"/>
<path d="M0 0 C0.66 0.33 1.32 0.66 2 1 C2 5.29 2 9.58 2 14 C0.68 13.34 -0.64 12.68 -2 12 C-2.83886169 9.32209537 -2.81766414 6.8262059 -3 4 C-2.01 3.67 -1.02 3.34 0 3 C0 2.01 0 1.02 0 0 Z " fill="#1BACB7" transform="translate(205,157)"/>
<path d="M0 0 C2.475 0.99 2.475 0.99 5 2 C5.33266291 8.20970773 4.45029331 12.28264895 2 18 C1.34 18 0.68 18 0 18 C0.66 13.38 1.32 8.76 2 4 C1.01 3.67 0.02 3.34 -1 3 C-0.67 2.01 -0.34 1.02 0 0 Z " fill="#1BA9B5" transform="translate(211,172)"/>
<path d="M0 0 C0.66 0.33 1.32 0.66 2 1 C2 4.63 2 8.26 2 12 C0.02 12.99 0.02 12.99 -2 14 C-2.33 10.04 -2.66 6.08 -3 2 C-2.01 1.34 -1.02 0.68 0 0 Z " fill="#23A6AF" transform="translate(205,146)"/>
<path d="M0 0 C2.625 -0.1875 2.625 -0.1875 5 0 C5 0.99 5 1.98 5 3 C4.01 3 3.02 3 2 3 C1.855625 4.093125 1.71125 5.18625 1.5625 6.3125 C1 10 1 10 0 13 C-0.66 13 -1.32 13 -2 13 C-2.05416188 11.39620659 -2.09286638 9.79188594 -2.125 8.1875 C-2.14820313 7.29417969 -2.17140625 6.40085938 -2.1953125 5.48046875 C-2 3 -2 3 0 0 Z " fill="#22A4AD" transform="translate(191,141)"/>
<path d="M0 0 C0.66 0.33 1.32 0.66 2 1 C2 2.65 2 4.3 2 6 C3.32 6 4.64 6 6 6 C6 9.3 6 12.6 6 16 C5.34 16 4.68 16 4 16 C4 14.35 4 12.7 4 11 C3.38125 10.690625 2.7625 10.38125 2.125 10.0625 C0.75 9.375 -0.625 8.6875 -2 8 C-1.125 1.125 -1.125 1.125 0 0 Z " fill="#26A2AB" transform="translate(69,236)"/>
<path d="M0 0 C0.22523024 3.62415933 0.42731308 7.24924219 0.625 10.875 C0.68945312 11.90753906 0.75390625 12.94007813 0.8203125 14.00390625 C0.871875 14.99003906 0.9234375 15.97617188 0.9765625 16.9921875 C1.02893066 17.90339355 1.08129883 18.81459961 1.13525391 19.75341797 C1 22 1 22 -1 24 C-1.33 16.74 -1.66 9.48 -2 2 C-4.31 2 -6.62 2 -9 2 C-4.13793103 -1.24137931 -4.13793103 -1.24137931 0 0 Z " fill="#36A0A9" transform="translate(208,145)"/>
<path d="M0 0 C0 0.66 0 1.32 0 2 C1.65 2.33 3.3 2.66 5 3 C5.33 4.32 5.66 5.64 6 7 C5.360625 6.690625 4.72125 6.38125 4.0625 6.0625 C0.07950896 4.68064597 -3.81650849 4.3463457 -8 4 C-4.5 0 -4.5 0 0 0 Z " fill="#20A6AC" transform="translate(215,111)"/>
<path d="M0 0 C2.40574276 2.40574276 2.45696282 3.63564003 3 6.9375 C3.57459711 10.42099497 3.99063817 11.98595726 6 15 C4.68 15 3.36 15 2 15 C1.32845067 13.71086513 0.66291141 12.41859796 0 11.125 C-0.37125 10.40570313 -0.7425 9.68640625 -1.125 8.9453125 C-2 7 -2 7 -2 5 C-1.34 5 -0.68 5 0 5 C0 3.35 0 1.7 0 0 Z " fill="#22A4AD" transform="translate(200,157)"/>
<path d="M0 0 C0 1.65 0 3.3 0 5 C-1.98 5.99 -3.96 6.98 -6 8 C-6.66 6.68 -7.32 5.36 -8 4 C-5.12247638 0.82480152 -4.32402534 0 0 0 Z " fill="#16AFBA" transform="translate(210,273)"/>
<path d="M0 0 C1.32 0.33 2.64 0.66 4 1 C4.33 2.32 4.66 3.64 5 5 C3.02 6.32 1.04 7.64 -1 9 C-1.80967438 6.08517222 -2.21845993 4.53886783 -1.0625 1.6875 C-0.711875 1.130625 -0.36125 0.57375 0 0 Z " fill="#15B3BD" transform="translate(345,242)"/>
<path d="M0 0 C0.99 0.99 1.98 1.98 3 3 C2.67 3.99 2.34 4.98 2 6 C1.67 5.01 1.34 4.02 1 3 C0.01 3.495 0.01 3.495 -1 4 C-1 4.99 -1 5.98 -1 7 C-2.65 6.67 -4.3 6.34 -6 6 C-6 5.67 -6 5.34 -6 5 C-7.65 4.67 -9.3 4.34 -11 4 C-11 3.67 -11 3.34 -11 3 C-10.37351563 2.86722656 -9.74703125 2.73445313 -9.1015625 2.59765625 C-8.28429687 2.42105469 -7.46703125 2.24445313 -6.625 2.0625 C-5.81289062 1.88847656 -5.00078125 1.71445312 -4.1640625 1.53515625 C-1.970537 1.07669307 -1.970537 1.07669307 0 0 Z " fill="#1FA3AE" transform="translate(257,271)"/>
<path d="M0 0 C0.66 0 1.32 0 2 0 C2 0.66 2 1.32 2 2 C2.66 2 3.32 2 4 2 C4.33 3.98 4.66 5.96 5 8 C5.99 8 6.98 8 8 8 C8 8.66 8 9.32 8 10 C5.6875 9.8125 5.6875 9.8125 3 9 C0.39811744 5.68035674 0 4.30683959 0 0 Z " fill="#1EA6AE" transform="translate(197,174)"/>
<path d="M0 0 C0.99 0.66 1.98 1.32 3 2 C3.25 5.0625 3.25 5.0625 3 8 C2 9 2 9 -1.5625 9.0625 C-2.696875 9.041875 -3.83125 9.02125 -5 9 C-4.54625 8.62875 -4.0925 8.2575 -3.625 7.875 C-1.52970606 5.45735315 -0.87986715 3.04569398 0 0 Z " fill="#22A6AF" transform="translate(92,256)"/>
<path d="M0 0 C3.465 1.485 3.465 1.485 7 3 C7 5.64 7 8.28 7 11 C5.35 10.01 3.7 9.02 2 8 C2.99 7.67 3.98 7.34 5 7 C4.34 6.34 3.68 5.68 3 5 C3 4.01 3 3.02 3 2 C2.01 2 1.02 2 0 2 C0 1.34 0 0.68 0 0 Z " fill="#19B3BE" transform="translate(304,239)"/>
<path d="M0 0 C3.79165074 -0.0289337 7.58327327 -0.04677601 11.375 -0.0625 C12.45523438 -0.07087891 13.53546875 -0.07925781 14.6484375 -0.08789062 C16.1953125 -0.09272461 16.1953125 -0.09272461 17.7734375 -0.09765625 C18.72653809 -0.10289307 19.67963867 -0.10812988 20.66162109 -0.11352539 C23 0 23 0 25 1 C25 1.66 25 2.32 25 3 C24.21367187 2.84660156 23.42734375 2.69320312 22.6171875 2.53515625 C18.12169774 1.87005679 13.66116824 1.64586315 9.125 1.4375 C8.24585938 1.39431641 7.36671875 1.35113281 6.4609375 1.30664062 C4.30744203 1.20130661 2.15373936 1.10022351 0 1 C0 0.67 0 0.34 0 0 Z " fill="#1EA3AC" transform="translate(166,230)"/>
<path d="M0 0 C1.32 0.33 2.64 0.66 4 1 C4.19672365 2.72814161 4.38196799 4.45759197 4.5625 6.1875 C4.66691406 7.15042969 4.77132812 8.11335937 4.87890625 9.10546875 C4.99758751 11.94233377 4.67765639 14.25423671 4 17 C1.97441119 13.65060119 1.78261013 11.13037449 1.875 7.25 C1.90207031 5.77273437 1.90207031 5.77273437 1.9296875 4.265625 C1.96449219 3.14414063 1.96449219 3.14414063 2 2 C0.02 2.99 0.02 2.99 -2 4 C-1.34 2.68 -0.68 1.36 0 0 Z " fill="#359B9D" transform="translate(213,165)"/>
<path d="M0 0 C2 3.75 2 3.75 2 6 C3.65 6 5.3 6 7 6 C7 6.66 7 7.32 7 8 C4.6875 8.6875 4.6875 8.6875 2 9 C0.1875 7.875 0.1875 7.875 -1 6 C-1.25 3.375 -1.25 3.375 -1 1 C-0.67 0.67 -0.34 0.34 0 0 Z " fill="#18A9B3" transform="translate(212,191)"/>
<path d="M0 0 C0.66 0.33 1.32 0.66 2 1 C1.25 7.75 1.25 7.75 -1 10 C-3.625 10.125 -3.625 10.125 -6 10 C-6.33 8.35 -6.66 6.7 -7 5 C-6.34 5 -5.68 5 -5 5 C-5 5.99 -5 6.98 -5 8 C-3.68 8 -2.36 8 -1 8 C-0.67 5.36 -0.34 2.72 0 0 Z " fill="#23A7AE" transform="translate(267,272)"/>
<path d="M0 0 C0.598125 0.350625 1.19625 0.70125 1.8125 1.0625 C1.1525 3.0425 0.4925 5.0225 -0.1875 7.0625 C-0.5175 6.4025 -0.8475 5.7425 -1.1875 5.0625 C-1.8475 5.0625 -2.5075 5.0625 -3.1875 5.0625 C-3.8475 3.4125 -4.5075 1.7625 -5.1875 0.0625 C-2.1875 -0.9375 -2.1875 -0.9375 0 0 Z " fill="#16B3BF" transform="translate(329.1875,259.9375)"/>
<path d="M0 0 C1.32 0 2.64 0 4 0 C4.33 1.65 4.66 3.3 5 5 C2.69 5 0.38 5 -2 5 C-1.125 1.125 -1.125 1.125 0 0 Z " fill="#18A8AF" transform="translate(109,229)"/>
<path d="M0 0 C2 3 2 3 2 7 C0.75 8.8125 0.75 8.8125 -1 10 C-3.1875 9.6875 -3.1875 9.6875 -5 9 C-4 6 -4 6 -1 4 C-0.27617533 1.94074861 -0.27617533 1.94074861 0 0 Z " fill="#13B2BB" transform="translate(82,252)"/>
<path d="M0 0 C0.66 0.33 1.32 0.66 2 1 C2 1.99 2 2.98 2 4 C1.01 4.495 1.01 4.495 0 5 C-0.65555119 7.52733235 -0.65555119 7.52733235 -1 10 C-2.32 9.34 -3.64 8.68 -5 8 C-4.34 8 -3.68 8 -3 8 C-2.87625 7.05125 -2.7525 6.1025 -2.625 5.125 C-2 2 -2 2 0 0 Z " fill="#15B2BB" transform="translate(242,272)"/>
<path d="M0 0 C3.3 0 6.6 0 10 0 C10 0.33 10 0.66 10 1 C8.35 1.33 6.7 1.66 5 2 C4.67 3.32 4.34 4.64 4 6 C4 5.34 4 4.68 4 4 C3.01 4.33 2.02 4.66 1 5 C0.67 3.35 0.34 1.7 0 0 Z " fill="#20A4AD" transform="translate(141,238)"/>
<path d="M0 0 C0.66 0 1.32 0 2 0 C2 0.66 2 1.32 2 2 C1.34 2 0.68 2 0 2 C0.04125 3.258125 0.0825 4.51625 0.125 5.8125 C0.2390374 9.29064073 0.05925681 9.91111478 -2 13 C-2.66 12.67 -3.32 12.34 -4 12 C-3.52494322 10.18641846 -3.04483958 8.37415821 -2.5625 6.5625 C-2.29566406 5.55316406 -2.02882812 4.54382813 -1.75390625 3.50390625 C-1 1 -1 1 0 0 Z " fill="#33A3AA" transform="translate(197,147)"/>
<path d="M0 0 C0.66 0 1.32 0 2 0 C3.125 6.75 3.125 6.75 2 9 C0.02 9 -1.96 9 -4 9 C-3 7 -3 7 0 6 C0 4.02 0 2.04 0 0 Z " fill="#23A0A5" transform="translate(209,272)"/>
<path d="M0 0 C3.96 0 7.92 0 12 0 C11.34 1.65 10.68 3.3 10 5 C9.01 4.34 8.02 3.68 7 3 C7 2.34 7 1.68 7 1 C4.69 1 2.38 1 0 1 C0 0.67 0 0.34 0 0 Z " fill="#1CA3AB" transform="translate(240,256)"/>
<path d="M0 0 C0.66 0.99 1.32 1.98 2 3 C-2.95 5.475 -2.95 5.475 -8 8 C-7.67 6.68 -7.34 5.36 -7 4 C-4.50935112 3.31292445 -2.62113708 3 0 3 C0 2.01 0 1.02 0 0 Z " fill="#16BBC1" transform="translate(341,249)"/>
<path d="M0 0 C1.5625 1.125 1.5625 1.125 3 3 C2.6875 6.1875 2.6875 6.1875 2 9 C1.34 9 0.68 9 0 9 C-1.125 3.375 -1.125 3.375 0 0 Z " fill="#1DADBB" transform="translate(151,238)"/>
<path d="M0 0 C2.125 0.375 2.125 0.375 4 1 C4 1.99 4 2.98 4 4 C2.02 4.33 0.04 4.66 -2 5 C-2 2 -2 2 0 0 Z " fill="#17B5B8" transform="translate(107,277)"/>
<path d="M0 0 C2.31 0.33 4.62 0.66 7 1 C7 1.99 7 2.98 7 4 C4.69 4 2.38 4 0 4 C0 2.68 0 1.36 0 0 Z " fill="#14B2B7" transform="translate(343,277)"/>
<path d="M0 0 C0.66 0 1.32 0 2 0 C2.125 2.875 2.125 2.875 2 6 C1.34 6.66 0.68 7.32 0 8 C0 6.68 0 5.36 0 4 C-1.32 3.67 -2.64 3.34 -4 3 C-3.67 2.34 -3.34 1.68 -3 1 C-2.01 1.33 -1.02 1.66 0 2 C0 1.34 0 0.68 0 0 Z " fill="#1FA3AB" transform="translate(323,272)"/>
<path d="M0 0 C2.125 0.375 2.125 0.375 4 1 C3.34 2.65 2.68 4.3 2 6 C1.01 5.67 0.02 5.34 -1 5 C-1.33 4.01 -1.66 3.02 -2 2 C-1.34 1.34 -0.68 0.68 0 0 Z " fill="#13B4BF" transform="translate(332,245)"/>
<path d="M0 0 C0.99 0 1.98 0 3 0 C2.34 2.64 1.68 5.28 1 8 C0.34 8 -0.32 8 -1 8 C-1.125 2.25 -1.125 2.25 0 0 Z " fill="#1AA8B2" transform="translate(190,146)"/>
<path d="M0 0 C0.66 0 1.32 0 2 0 C2.33 1.65 2.66 3.3 3 5 C0.50907189 6.24546405 -0.41080733 5.7767578 -3 5 C-1.125 1.125 -1.125 1.125 0 0 Z " fill="#16B0BD" transform="translate(139,275)"/>
<path d="M0 0 C0.99 0.33 1.98 0.66 3 1 C3 5.62 3 10.24 3 15 C2.34 14.67 1.68 14.34 1 14 C0.5859375 10.83984375 0.5859375 10.83984375 0.375 6.9375 C0.30023438 5.64714844 0.22546875 4.35679687 0.1484375 3.02734375 C0.09945312 2.02832031 0.05046875 1.02929688 0 0 Z " fill="#1BA0A7" transform="translate(208,248)"/>
<path d="M0 0 C-0.61875 0.268125 -1.2375 0.53625 -1.875 0.8125 C-4.2995233 1.95556848 -4.2995233 1.95556848 -6 5 C-6.99 5.495 -6.99 5.495 -8 6 C-8.33 4.68 -8.66 3.36 -9 2 C-5.86501708 0.14223235 -3.62528568 -0.20140476 0 0 Z " fill="#1DA2A4" transform="translate(80,232)"/>
<path d="M0 0 C0.99 0 1.98 0 3 0 C3 0.66 3 1.32 3 2 C4.32 2 5.64 2 7 2 C7 2.66 7 3.32 7 4 C4.69 3.67 2.38 3.34 0 3 C0 2.01 0 1.02 0 0 Z " fill="#23A5AB" transform="translate(133,278)"/>
<path d="M0 0 C1.31602523 0.61754259 2.62773556 1.24428742 3.9375 1.875 C4.66839844 2.22304688 5.39929688 2.57109375 6.15234375 2.9296875 C8 4 8 4 9 6 C8.01 6.33 7.02 6.66 6 7 C5.67 6.34 5.34 5.68 5 5 C4.154375 4.505 3.30875 4.01 2.4375 3.5 C1.633125 3.005 0.82875 2.51 0 2 C0 1.34 0 0.68 0 0 Z " fill="#14C0C3" transform="translate(332,258)"/>
<path d="M0 0 C2.31 0.66 4.62 1.32 7 2 C7 2.66 7 3.32 7 4 C6.34 4 5.68 4 5 4 C4.67 4.66 4.34 5.32 4 6 C2.62437146 4.71034824 1.29233607 3.37310707 0 2 C0 1.34 0 0.68 0 0 Z " fill="#15BCC1" transform="translate(252,247)"/>
<path d="M0 0 C0.66 0.33 1.32 0.66 2 1 C0.625 3.5 0.625 3.5 -1 6 C-1.66 6 -2.32 6 -3 6 C-3 4.35 -3 2.7 -3 1 C-2.01 0.67 -1.02 0.34 0 0 Z " fill="#15A7AA" transform="translate(203,238)"/>
<path d="M0 0 C0.66 0 1.32 0 2 0 C1.67 2.97 1.34 5.94 1 9 C0.34 9 -0.32 9 -1 9 C-1.09765625 2.84765625 -1.09765625 2.84765625 -1 1 C-0.67 0.67 -0.34 0.34 0 0 Z " fill="#18AAB1" transform="translate(220,185)"/>
<path d="M0 0 C0.33 1.32 0.66 2.64 1 4 C-0.875 4.625 -0.875 4.625 -3 5 C-3.66 4.34 -4.32 3.68 -5 3 C-2.25 0 -2.25 0 0 0 Z " fill="#19A4AD" transform="translate(238,258)"/>
<path d="M0 0 C2.97 0.495 2.97 0.495 6 1 C5.6875 2.9375 5.6875 2.9375 5 5 C4.01 5.33 3.02 5.66 2 6 C1.34 4.02 0.68 2.04 0 0 Z " fill="#16AEBC" transform="translate(132,251)"/>
<path d="M0 0 C1.5 1.25 1.5 1.25 3 3 C3 4.32 3 5.64 3 7 C2.01 7.33 1.02 7.66 0 8 C0 5.36 0 2.72 0 0 Z " fill="#1CA7B2" transform="translate(221,176)"/>
<path d="M0 0 C0.99 0 1.98 0 3 0 C3.99 1.98 4.98 3.96 6 6 C4.68 6 3.36 6 2 6 C1.34 4.02 0.68 2.04 0 0 Z " fill="#2CA0AA" transform="translate(200,166)"/>
<path d="M0 0 C0.33 0.66 0.66 1.32 1 2 C0.67 2.99 0.34 3.98 0 5 C-1.65 4.67 -3.3 4.34 -5 4 C-5 3.34 -5 2.68 -5 2 C-3.35 1.34 -1.7 0.68 0 0 Z " fill="#11AAB0" transform="translate(249,276)"/>
<path d="M0 0 C0.625 1.875 0.625 1.875 1 4 C0.34 4.66 -0.32 5.32 -1 6 C-3.125 5.625 -3.125 5.625 -5 5 C-5 3 -5 3 -3.625 1.375 C-2 0 -2 0 0 0 Z " fill="#14A2AB" transform="translate(266,248)"/>
<path d="M0 0 C0.33 0 0.66 0 1 0 C1 1.98 1 3.96 1 6 C0.34 6 -0.32 6 -1 6 C-1.33 6.66 -1.66 7.32 -2 8 C-2.6875 6.25 -2.6875 6.25 -3 4 C-1.625 1.75 -1.625 1.75 0 0 Z " fill="#13BBBF" transform="translate(281,245)"/>
<path d="M0 0 C0.66 0.33 1.32 0.66 2 1 C1.34 2.98 0.68 4.96 0 7 C-0.99 6.67 -1.98 6.34 -3 6 C-2.01 4.02 -1.02 2.04 0 0 Z " fill="#19B7C0" transform="translate(320,226)"/>
</svg>
